<!-- icon666.com - MILLIONS vector ICONS FREE --><svg viewBox="0 0 512.001 512" xmlns="http://www.w3.org/2000/svg"><g fill-rule="evenodd"><path d="m337 241.585938c-16.570312 0-30-23.730469-30-53 0-29.273438 13.429688-53 30-53 16.566406 0 30 23.726562 30 53 0 29.269531-13.429688 53-30 53zm-81 260.414062c135.863281 0 246-110.136719 246-246s-110.136719-246-246-246-246 110.136719-246 246 110.136719 246 246 246zm-81-366.414062c16.570312 0 30 23.726562 30 53 0 29.269531-13.429688 53-30 53-16.566406 0-30-23.730469-30-53 0-29.273438 13.433594-53 30-53zm0 0" fill="#ffc059"></path><path d="m205 188.585938c0-29.273438-13.429688-53-30-53-16.566406 0-30 23.726562-30 53 0 29.269531 13.433594 53 30 53 16.570312 0 30-23.730469 30-53zm0 0" fill="#858fa6"></path><path d="m367 188.585938c0-29.273438-13.429688-53-30-53-16.566406 0-30 23.726562-30 53 0 29.269531 13.433594 53 30 53 16.570312 0 30-23.730469 30-53zm0 0" fill="#858fa6"></path></g><path d="m437.019531 74.980469c-48.351562-48.351563-112.640625-74.980469-181.019531-74.980469-53.925781 0-105.515625 16.582031-149.191406 47.957031-4.484375 3.222657-5.511719 9.472657-2.289063 13.957031 3.222657 4.484376 9.46875 5.511719 13.957031 2.289063 40.253907-28.917969 87.808594-44.203125 137.523438-44.203125 130.132812 0 236 105.871094 236 236 0 49.714844-15.285156 97.269531-44.199219 137.523438-3.222656 4.484374-2.199219 10.734374 2.285157 13.957031 1.765624 1.269531 3.804687 1.878906 5.828124 1.878906 3.109376 0 6.175782-1.449219 8.128907-4.167969 31.375-43.675781 47.957031-95.265625 47.957031-149.191406 0-68.378906-26.628906-132.667969-74.980469-181.019531zm0 0"></path><path d="m393.519531 447.804688c-40.25 28.914062-87.800781 44.195312-137.519531 44.195312-130.128906 0-236-105.867188-236-236 0-49.714844 15.28125-97.269531 44.195312-137.519531 3.222657-4.484375 2.199219-10.730469-2.285156-13.953125s-10.734375-2.199219-13.957031 2.285156c-31.371094 43.671875-47.953125 95.257812-47.953125 149.1875 0 68.382812 26.628906 132.667969 74.980469 181.019531 48.351562 48.351563 112.640625 74.980469 181.019531 74.980469 53.929688 0 105.519531-16.582031 149.1875-47.953125 4.484375-3.222656 5.507812-9.472656 2.285156-13.957031s-9.46875-5.507813-13.953125-2.285156zm0 0"></path><path d="m175 251.585938c22.429688 0 40-27.675782 40-63 0-35.328126-17.570312-63-40-63s-40 27.671874-40 63c0 35.324218 17.570312 63 40 63zm0-106c9.25 0 20 18.78125 20 43 0 24.214843-10.75 43-20 43s-20-18.785157-20-43c0-24.21875 10.75-43 20-43zm0 0"></path><path d="m377 188.585938c0-35.328126-17.570312-63-40-63s-40 27.671874-40 63c0 35.324218 17.570312 63 40 63s40-27.675782 40-63zm-60 0c0-24.21875 10.75-43 20-43s20 18.78125 20 43c0 24.214843-10.75 43-20 43s-20-18.785157-20-43zm0 0"></path><path d="m435.480469 293.738281-14.144531-3.789062s-.003907 0-.007813-.003907c-.003906 0-.007813 0-.007813 0l-14.144531-3.789062c-5.339843-1.433594-10.820312 1.734375-12.25 7.070312-1.429687 5.332032 1.738281 10.816407 7.070313 12.246094l4.191406 1.125c-21.554688 64-81.941406 107.882813-150.1875 107.882813s-128.632812-43.882813-150.1875-107.882813l4.1875-1.125c5.335938-1.429687 8.5-6.914062 7.074219-12.246094-1.429688-5.335937-6.914063-8.503906-12.25-7.070312l-14.144531 3.789062c-.003907 0-.007813 0-.007813 0-.003906.003907-.007813.003907-.011719.003907l-14.144531 3.789062c-5.332031 1.433594-8.5 6.914063-7.070313 12.25 1.199219 4.464844 5.238282 7.414063 9.652344 7.414063.855469 0 1.730469-.113282 2.597656-.34375l4.773438-1.28125c23.921875 72.730468 92.246094 122.703125 169.53125 122.703125 77.28125 0 145.609375-49.972657 169.53125-122.703125l4.773438 1.28125c.867187.230468 1.738281.34375 2.59375.34375 4.414062 0 8.457031-2.949219 9.652343-7.414063 1.433594-5.335937-1.734375-10.816406-7.070312-12.25zm0 0"></path><path d="m82.042969 92.054688c2.707031 0 5.40625-1.09375 7.378906-3.246094 3.734375-4.070313 3.457031-10.394532-.613281-14.128906-4.070313-3.730469-10.398438-3.453126-14.128906.617187l-.003907.003906c-3.734375 4.070313-3.453125 10.394531.617188 14.125 1.917969 1.761719 4.335937 2.628907 6.75 2.628907zm0 0"></path><path d="m422.578125 423.191406-.007813.007813c-3.730468 4.070312-3.453124 10.394531.617188 14.125 1.921875 1.757812 4.339844 2.628906 6.753906 2.628906 2.707032 0 5.40625-1.09375 7.378906-3.246094 3.730469-4.070312 3.457032-10.394531-.613281-14.128906-4.074219-3.734375-10.398437-3.457031-14.128906.613281zm0 0"></path></svg>